<svg width="19" height="19" viewBox="0 0 19 19" fill="none" xmlns="http://www.w3.org/2000/svg">
<path d="M9.5 7.02677C8.13808 7.02677 7.02666 8.1382 7.02666 9.50011C7.02666 10.862 8.13808 11.9735 9.5 11.9735C10.8619 11.9735 11.9733 10.862 11.9733 9.50011C11.9733 8.1382 10.8619 7.02677 9.5 7.02677ZM16.9182 9.50011C16.9182 8.47589 16.9274 7.46095 16.8699 6.43859C16.8124 5.25109 16.5415 4.19718 15.6731 3.32882C14.8029 2.45861 13.7509 2.18957 12.5634 2.13205C11.5392 2.07453 10.5242 2.0838 9.50185 2.0838C8.47763 2.0838 7.46269 2.07453 6.44033 2.13205C5.25283 2.18957 4.19892 2.46046 3.33056 3.32882C2.46035 4.19904 2.19131 5.25109 2.13379 6.43859C2.07627 7.46281 2.08554 8.47775 2.08554 9.50011C2.08554 10.5225 2.07627 11.5393 2.13379 12.5616C2.19131 13.7491 2.4622 14.803 3.33056 15.6714C4.20078 16.5416 5.25283 16.8107 6.44033 16.8682C7.46455 16.9257 8.47949 16.9164 9.50185 16.9164C10.5261 16.9164 11.541 16.9257 12.5634 16.8682C13.7509 16.8107 14.8048 16.5398 15.6731 15.6714C16.5434 14.8012 16.8124 13.7491 16.8699 12.5616C16.9293 11.5393 16.9182 10.5243 16.9182 9.50011ZM9.5 13.3057C7.39404 13.3057 5.69443 11.6061 5.69443 9.50011C5.69443 7.39416 7.39404 5.69455 9.5 5.69455C11.606 5.69455 13.3056 7.39416 13.3056 9.50011C13.3056 11.6061 11.606 13.3057 9.5 13.3057ZM13.4614 6.42746C12.9697 6.42746 12.5727 6.03039 12.5727 5.53869C12.5727 5.04699 12.9697 4.64992 13.4614 4.64992C13.9531 4.64992 14.3502 5.04699 14.3502 5.53869C14.3503 5.65544 14.3274 5.77108 14.2828 5.87898C14.2382 5.98687 14.1728 6.08491 14.0902 6.16747C14.0076 6.25003 13.9096 6.31549 13.8017 6.3601C13.6938 6.40471 13.5782 6.4276 13.4614 6.42746Z" fill="#7E838C"/>
</svg>
